HIERARCHY
ROOT Hips
{
	OFFSET 0.000000 8.830580 0.000000
	CHANNELS 6 Xposition Yposition Zposition Zrotation Yrotation Xrotation 
	JOINT Spine
	{
		OFFSET 0.000000 0.010000 0.000000
		CHANNELS 3 Zrotation Yrotation Xrotation
		JOINT Spine1
		{
			OFFSET 0.000000 2.459130 0.000000
			CHANNELS 3 Zrotation Yrotation Xrotation
			JOINT Neck
			{
				OFFSET 0.000000 2.484630 0.000000
				CHANNELS 3 Zrotation Yrotation Xrotation
				JOINT Head_virtual
				{
					OFFSET 0.000000 0.000000 0.000000
					CHANNELS 3 Zrotation Yrotation Xrotation
					JOINT Head
					{
						OFFSET 0.000000 0.927525 0.000000
						CHANNELS 3 Zrotation Yrotation Xrotation
						End Site
						{
							OFFSET 0.000000 0.000000 0.000000
						}
					}
				}
				JOINT LeftUpArm_virtual
				{
					OFFSET 0.000000 0.000000 0.000000
					CHANNELS 3 Zrotation Yrotation Xrotation
					JOINT LeftUpArm
					{
						OFFSET 1.248820 0.000000 0.000000
						CHANNELS 3 Zrotation Yrotation Xrotation
						JOINT LeftForeArm
						{
							OFFSET 2.597580 0.000000 0.000000
							CHANNELS 3 Zrotation Yrotation Xrotation
							JOINT LeftHand
							{
								OFFSET 2.455420 0.000000 0.000000
								CHANNELS 3 Zrotation Yrotation Xrotation
								End Site
								{
									OFFSET 0.000000 0.000000 0.000000
								}
							}
						}
					}
				}
				JOINT RightUpArm_virtual
				{
					OFFSET -0.000000 -0.000000 -0.000000
					CHANNELS 3 Zrotation Yrotation Xrotation
					JOINT RightUpArm
					{
						OFFSET -1.248820 -0.000000 -0.000000
						CHANNELS 3 Zrotation Yrotation Xrotation
						JOINT RightForeArm
						{
							OFFSET -2.597580 -0.000000 -0.000000
							CHANNELS 3 Zrotation Yrotation Xrotation
							JOINT RightHand
							{
								OFFSET -2.455420 -0.000000 -0.000000
								CHANNELS 3 Zrotation Yrotation Xrotation
								End Site
								{
									OFFSET 0.000000 0.000000 0.000000
								}
							}
						}
					}
				}
			}
		}
	}
	JOINT LeftUpLeg
	{
		OFFSET 1.271939 0.000000 0.000000
		CHANNELS 3 Zrotation Yrotation Xrotation
		JOINT LeftLowLeg
		{
			OFFSET 0.000000 -4.342910 0.000000
			CHANNELS 3 Zrotation Yrotation Xrotation
			JOINT LeftFoot
			{
				OFFSET 0.000000 -4.487670 0.000000
				CHANNELS 3 Zrotation Yrotation Xrotation
				JOINT LeftToeBase
				{
					OFFSET 0.000000 0.000000 1.515070
					CHANNELS 3 Zrotation Yrotation Xrotation
					End Site
					{
						OFFSET 0.000000 0.000000 0.000000
					}
				}
			}
		}
	}
	JOINT RightUpLeg
	{
		OFFSET -1.271939 0.000000 0.000000
		CHANNELS 3 Zrotation Yrotation Xrotation
		JOINT RightLowLeg
		{
			OFFSET 0.000000 -4.342910 0.000000
			CHANNELS 3 Zrotation Yrotation Xrotation
			JOINT RightFoot
			{
				OFFSET 0.000000 -4.487670 0.000000
				CHANNELS 3 Zrotation Yrotation Xrotation
				JOINT RightToeBase
				{
					OFFSET 0.000000 0.000000 1.515070
					CHANNELS 3 Zrotation Yrotation Xrotation
					End Site
					{
						OFFSET 0.000000 0.000000 0.000000
					}
				}
			}
		}
	}
}
MOTION
Frames: 16
Frame Time: 0.041667
-17.664174 9.270290 49.991805 -172.306406 -0.342556 177.575823 6.411842 3.681206 -19.394914 -8.180207 0.052750 39.808519 0.000000 0.000000 0.000000 5.518828 5.546137 -13.403218 5.267011 6.396984 -65.590359 -25.493799 -1.269960 -9.379000 -34.524601 1.445560 34.203999 0.000000 -24.145901 0.000000 6.214440 8.676360 2.330740 32.463402 0.635884 -0.181064 42.659500 5.659240 15.987000 0.000000 21.757200 0.000000 -2.422030 -3.853540 -9.082290 5.114989 18.607257 9.381218 0.000000 0.000000 0.919051 -4.160640 9.239824 6.745573 0.000000 0.000000 -8.482030 4.976115 12.198902 1.393000 0.000000 0.000000 9.466140 16.463945 -21.918673 11.115518 0.000000 0.000000 -10.399620 
-17.702554 9.268380 50.010191 -172.261573 -0.298028 177.611078 6.403662 3.676172 -19.203759 -8.356444 -0.027156 39.836004 0.000000 0.000000 0.000000 5.386892 5.672186 -13.479876 5.251933 6.528571 -65.733240 -25.516100 -1.176880 -9.464590 -34.371300 0.824031 34.037998 0.000000 -24.761400 0.000000 6.261170 8.486290 2.249210 32.556702 0.805015 0.018201 42.481400 5.985730 15.691200 0.000000 21.939400 0.000000 -2.836060 -3.860200 -8.694670 4.879591 18.522275 9.252997 0.000000 0.000000 0.902818 -3.992472 9.370069 6.698071 0.000000 0.000000 -8.421210 4.749815 12.034128 0.969409 0.000000 0.000000 9.975220 16.684486 -21.683345 11.168847 0.000000 0.000000 -10.584000 
-17.740248 9.267106 50.027598 -172.181264 -0.237654 177.625966 6.417688 3.731187 -19.091129 -8.444298 0.000931 40.037701 0.000000 0.000000 0.000000 5.371768 5.683451 -13.801710 5.328114 6.577310 -65.718761 -25.460400 -1.293650 -9.326360 -34.231499 0.015083 33.976799 0.000000 -25.365000 0.000000 6.700690 8.272990 2.069650 32.512901 0.899289 0.054600 42.446602 6.271770 15.503900 0.000000 22.213499 0.000000 -3.075970 -3.669600 -8.947300 4.710656 18.532376 9.175905 0.000000 0.000000 0.858649 -3.763016 9.408495 6.702508 0.000000 0.000000 -8.427050 4.578809 12.072612 0.522998 0.000000 0.000000 10.567800 17.055506 -21.604385 11.190119 0.000000 0.000000 -10.714250 
-17.776590 9.266644 50.046938 -172.087998 -0.190590 177.663762 6.405708 3.753817 -18.982679 -8.441334 0.054676 40.230922 0.000000 0.000000 0.000000 5.372013 5.725996 -14.042214 5.452862 6.635564 -65.679586 -25.430799 -1.620890 -9.350590 -34.030899 -0.552803 33.763199 0.000000 -26.138300 0.000000 7.087740 8.065660 1.994490 32.493801 0.990872 0.097938 42.308899 6.614830 15.257900 0.000000 22.516600 0.000000 -2.709150 -3.899820 -8.934200 4.564582 18.665295 9.039743 0.000000 0.000000 0.850899 -3.605223 9.364600 6.691478 0.000000 0.000000 -8.371550 4.404308 11.991497 -0.037694 0.000000 0.000000 11.306100 17.467597 -21.399372 11.263134 0.000000 0.000000 -10.944930 
-17.811047 9.267029 50.067019 -171.978021 -0.120719 177.621798 6.429479 3.786474 -18.774811 -8.526714 0.041519 40.368513 0.000000 0.000000 0.000000 5.383410 5.739969 -14.261977 5.429764 6.709994 -65.749515 -25.363199 -1.938600 -9.441340 -33.805000 -1.068010 33.652599 0.000000 -26.863199 0.000000 7.729910 7.841020 2.093700 32.497700 1.126890 0.187195 42.167198 6.965150 15.042900 0.000000 22.941299 0.000000 -3.169430 -3.621360 -8.383520 4.435900 18.549662 8.962790 0.000000 0.000000 0.871950 -3.429615 9.539283 6.693795 0.000000 0.000000 -8.361860 4.276476 12.048159 -0.600141 0.000000 0.000000 12.184300 17.894340 -21.265585 11.366658 0.000000 0.000000 -11.261490 
-17.844386 9.267831 50.088324 -171.855866 -0.091587 177.585964 6.476608 3.754700 -18.539939 -8.718710 -0.083558 40.502154 0.000000 0.000000 0.000000 5.230180 5.897478 -14.487632 5.493867 6.863130 -65.746446 -25.318701 -1.952220 -9.342520 -33.545300 -1.998260 33.425800 0.000000 -27.550501 0.000000 8.360710 7.539480 0.441766 32.500801 1.335050 0.250124 42.019100 7.355630 15.005200 0.000000 23.385900 0.000000 -3.511600 -3.294650 -8.193350 4.329985 18.472948 8.818850 0.000000 0.000000 0.983648 -3.284519 9.636207 6.658211 0.000000 0.000000 -8.338290 4.147653 11.966128 -1.228356 0.000000 0.000000 13.167100 18.330705 -20.993325 11.517395 0.000000 0.000000 -11.691930 
-17.876371 9.268906 50.107254 -171.719254 0.009937 177.547030 6.450847 3.717148 -18.344562 -8.573620 -0.044230 40.555213 0.000000 0.000000 0.000000 5.241086 5.875868 -14.500030 5.338464 6.907431 -65.939061 -25.262899 -2.389720 -9.321620 -33.356499 -2.531270 33.183102 0.000000 -28.283199 0.000000 8.965300 7.405270 0.438066 32.436199 1.453890 0.197778 41.773998 7.581730 14.900100 0.000000 24.102200 0.000000 -4.338050 -2.682400 -9.718010 4.288801 18.567932 8.755441 0.000000 0.000000 1.021470 -3.091747 9.587961 6.691521 0.000000 0.000000 -8.392730 4.047095 11.983000 -1.899885 0.000000 0.000000 14.248900 18.823640 -20.724116 11.674023 0.000000 0.000000 -12.292680 
-17.903718 9.273217 50.126501 -171.567315 0.077694 177.521701 5.953085 2.823654 -18.744004 -7.070702 0.328054 41.391529 0.000000 0.000000 0.000000 4.456169 5.663628 -14.933437 5.535594 6.453703 -65.717882 -25.574400 -3.310590 -9.552370 -33.396500 -2.917550 32.876598 0.000000 -29.011299 0.000000 9.445400 7.265140 0.685485 31.320499 1.687290 -0.281599 41.937901 7.778230 14.807500 0.000000 24.838499 0.000000 -4.621630 -2.952010 -9.257260 4.263359 18.529314 8.651898 0.000000 0.000000 1.073550 -3.022042 9.641181 6.737777 0.000000 0.000000 -8.339910 3.997833 12.062760 -2.661100 0.000000 0.000000 15.454200 19.276482 -20.581816 11.917985 0.000000 0.000000 -13.038490 
-17.929476 9.274425 50.142226 -171.428075 0.126985 177.427337 5.786033 2.517765 -18.544354 -6.669185 0.345440 41.464719 0.000000 0.000000 0.000000 4.048125 5.728210 -15.152794 5.609673 6.455633 -65.893165 -25.733299 -3.489440 -9.279610 -33.044701 -3.855000 32.593899 0.000000 -29.752800 0.000000 9.674720 6.742640 1.490970 31.126900 1.809100 -0.161000 41.651001 8.170660 14.811200 0.000000 25.579000 0.000000 -4.831310 -2.971410 -9.563040 4.265115 18.515832 8.660650 0.000000 0.000000 1.087800 -2.904228 9.649007 6.744031 0.000000 0.000000 -8.321960 3.975199 12.070156 -3.374169 0.000000 0.000000 16.750500 19.825044 -20.420322 12.016695 0.000000 0.000000 -14.031132 
-17.951530 9.275428 50.152005 -171.272440 0.292057 177.376645 5.620646 2.260478 -18.510927 -6.197581 0.455555 41.652009 0.000000 0.000000 0.000000 3.719690 5.702709 -15.467116 5.723962 6.367632 -65.918349 -25.800100 -3.676640 -9.232180 -32.796501 -4.678630 32.521801 0.000000 -30.463301 0.000000 10.122600 6.559110 1.579200 30.831301 1.893830 -0.201052 41.529800 8.450780 14.399500 0.000000 26.511400 0.000000 -4.809390 -3.175400 -9.280590 4.310776 18.603598 8.734143 0.000000 0.000000 1.007460 -2.801092 9.681143 6.746738 0.000000 0.000000 -8.297120 4.025449 12.108594 -4.157811 0.000000 0.000000 18.138901 20.397513 -20.368036 12.078329 0.000000 0.000000 -15.322026 
-17.971377 9.275696 50.168807 -171.119882 0.228749 177.323597 5.454095 1.955494 -18.345165 -5.856608 0.449280 41.724071 0.000000 0.000000 0.000000 3.544999 5.681810 -15.775832 5.750972 6.349547 -65.979047 -25.825899 -3.975440 -9.320200 -32.440102 -5.286570 32.386002 0.000000 -31.204300 0.000000 10.579700 6.440200 1.638700 30.684000 1.889210 -0.252336 41.331200 8.834310 14.619300 0.000000 27.248800 0.000000 -5.559720 -2.652670 -9.549780 4.297481 18.310430 8.640792 0.000000 0.000000 1.063740 -2.677686 9.868180 6.683465 0.000000 0.000000 -8.235300 4.117905 11.822941 -5.055071 0.000000 0.000000 19.686701 21.233807 -20.342797 11.991573 0.000000 0.000000 -16.650180 
-17.987694 9.276252 50.179868 -170.993448 0.237365 177.285287 5.314054 1.760149 -18.208493 -5.692731 0.431876 41.708951 0.000000 0.000000 0.000000 3.367255 5.723472 -15.964710 5.852182 6.384332 -66.176665 -25.885500 -4.093450 -9.255720 -31.920700 -6.029270 32.277302 0.000000 -31.902000 0.000000 10.932300 6.270390 1.458870 30.691099 1.962930 -0.222281 41.085899 9.115970 14.724600 0.000000 28.049700 0.000000 -5.985970 -2.494170 -9.616330 4.294625 18.089053 8.638933 0.000000 0.000000 1.008950 -2.595372 10.026434 6.681965 0.000000 0.000000 -8.078300 4.291889 11.444209 -5.996566 0.000000 0.000000 21.334600 21.542644 -20.486417 11.930334 0.000000 0.000000 -18.102720 
-18.000295 9.276783 50.193386 -170.870180 0.106848 177.248092 5.104654 1.505206 -18.082354 -5.455926 0.429267 41.624029 0.000000 0.000000 0.000000 3.419464 5.721477 -15.970395 5.716337 6.455026 -66.372012 -25.584999 -5.175530 -9.867110 -31.615200 -5.195330 32.040901 0.000000 -32.799999 0.000000 11.594500 5.790160 1.935720 30.551901 2.211000 -0.374883 41.076900 9.033760 14.636900 0.000000 28.780600 0.000000 -6.295080 -2.085650 -9.728720 4.305730 17.886980 8.543396 0.000000 0.000000 1.052030 -2.495820 10.145379 6.647163 0.000000 0.000000 -8.095710 4.552806 10.794047 -6.938940 0.000000 0.000000 22.902599 20.842471 -20.585936 11.974654 0.000000 0.000000 -19.404820 
-18.011784 9.278726 50.194337 -170.720356 0.164325 177.160752 4.995655 1.391063 -18.043401 -5.336053 0.457284 41.709928 0.000000 0.000000 0.000000 3.462918 5.733740 -16.265787 5.594735 6.555564 -66.420499 -25.456499 -5.325730 -10.194500 -31.313499 -5.526650 31.912800 0.000000 -33.392101 0.000000 11.806200 5.626420 2.217470 30.492701 2.311260 -0.444555 41.036201 9.181540 14.708200 0.000000 29.471901 0.000000 -6.623020 -1.944980 -9.790640 4.435082 17.951835 8.742512 0.000000 0.000000 0.861538 -2.436488 10.082571 6.696794 0.000000 0.000000 -8.157300 4.920500 10.402993 -7.639712 0.000000 0.000000 24.134399 19.961017 -20.254692 12.029766 0.000000 0.000000 -20.308990 
-18.020949 9.280157 50.194119 -170.579915 0.097409 177.117635 4.867182 1.224078 -18.040958 -5.217955 0.443665 41.690232 0.000000 0.000000 0.000000 3.401501 5.765466 -16.512269 5.655855 6.605573 -66.467870 -25.324600 -5.533620 -10.249300 -30.963301 -5.860150 31.733200 0.000000 -33.896400 0.000000 12.313000 5.442190 2.119900 30.377899 2.307250 -0.446433 41.154099 9.441120 14.671700 0.000000 29.950600 0.000000 -6.725370 -1.863510 -10.101000 4.546378 17.995278 8.830775 0.000000 0.000000 0.760078 -2.374784 9.990977 6.710898 0.000000 0.000000 -8.161950 5.307752 10.213858 -8.250802 0.000000 0.000000 25.006300 19.345808 -19.681966 12.031237 0.000000 0.000000 -20.704880 
-18.028081 9.282158 50.193138 -170.434149 -0.156084 177.087250 4.735335 1.000616 -18.001840 -5.160172 0.351039 41.594155 0.000000 0.000000 0.000000 3.514982 5.771507 -16.766692 5.522911 6.712959 -66.532964 -25.105200 -5.808560 -10.539900 -30.726801 -5.904480 31.505100 0.000000 -34.337299 0.000000 12.651400 5.251540 1.778490 30.358400 2.312990 -0.431294 41.204201 9.661140 14.753200 0.000000 30.377199 0.000000 -6.883530 -1.695570 -10.059500 4.640862 17.810795 8.823560 0.000000 0.000000 0.737700 -2.293906 9.937869 6.703525 0.000000 0.000000 -8.121470 5.728932 9.998351 -8.732302 0.000000 0.000000 25.468599 18.901302 -19.018282 12.149174 0.000000 0.000000 -21.040140 
